<svg xmlns="http://www.w3.org/2000/svg" viewBox="0 0 119.59 53.16"><defs><style>.cls-1{fill:none;stroke:#211111;stroke-miterlimit:10;}.cls-2{fill:#211111;}</style></defs><g id="OBJECTS"><path class="cls-1" d="M46.19,43.33a22.7,22.7,0,0,0,7.25-16.17A23.07,23.07,0,0,0,49,12.31a16.24,16.24,0,0,0-12.44-6.8A16.16,16.16,0,0,0,25.29,9.74,22.68,22.68,0,0,0,18,25.91c-.45,11.59,7.12,21.3,16.88,21.65A16.18,16.18,0,0,0,46.19,43.33Zm-.74-28.57A19,19,0,0,1,49.06,27a18.63,18.63,0,0,1-5.85,13.26,12.28,12.28,0,0,1-5,2.76c3.13-4.37,5.47-10.89,1.19-17.08-5.86-8.46-2-15.72-1.81-16a1.17,1.17,0,0,0,.05-.11A12.24,12.24,0,0,1,45.45,14.76Zm-23,11.3A18.57,18.57,0,0,1,28.27,12.8a12.34,12.34,0,0,1,4.5-2.6c-1.16,3.45-2.33,10.41,3,18.06,2.1,3,2.17,6.44.23,10.15A20.15,20.15,0,0,1,32.59,43C26.5,41.28,22.1,34.27,22.42,26.06Z"/><path class="cls-2" d="M45.45,14.76A19,19,0,0,1,49.06,27a18.63,18.63,0,0,1-5.85,13.26,12.28,12.28,0,0,1-5,2.76c3.13-4.37,5.47-10.89,1.19-17.08-5.86-8.46-2-15.72-1.81-16a1.17,1.17,0,0,0,.05-.11A12.24,12.24,0,0,1,45.45,14.76Z"/><path d="M68.6,23.73l-.37.05-.68-2.44a8.71,8.71,0,0,0-2.08-.29,4.38,4.38,0,0,0-3.58,1.59,6.33,6.33,0,0,0-1.29,4.12,6.12,6.12,0,0,0,1.48,4.32,5.3,5.3,0,0,0,4.11,1.62,9.46,9.46,0,0,0,3.11-.57l.1.42a7.13,7.13,0,0,1-4.14,1.26A6.61,6.61,0,0,1,60.41,32a6.47,6.47,0,0,1-1.85-4.81,6.48,6.48,0,0,1,2-5,7.55,7.55,0,0,1,5.3-1.86,14.34,14.34,0,0,1,3.21.38l.07.08Z"/><path d="M83.72,26.7a7.27,7.27,0,0,1-1.82,5.17,6.62,6.62,0,0,1-5.09,1.95A6.27,6.27,0,0,1,72,32a6.84,6.84,0,0,1-1.7-4.88,7,7,0,0,1,1.83-5.08,6.76,6.76,0,0,1,5.08-1.87A6.38,6.38,0,0,1,82,21.93,6.54,6.54,0,0,1,83.72,26.7Zm-11.39.12a7.54,7.54,0,0,0,1.23,4.64,4.23,4.23,0,0,0,3.59,1.61,4,4,0,0,0,3.43-1.46A7.64,7.64,0,0,0,81.69,27a7.39,7.39,0,0,0-1.18-4.51,4.23,4.23,0,0,0-3.63-1.58,4,4,0,0,0-3.47,1.46A7.45,7.45,0,0,0,72.33,26.82Z"/><path d="M85.56,20.49l2.34,0,1.41-.05c.65,0,1.09,0,1.31,0a5.16,5.16,0,0,1,3.08.76,2.51,2.51,0,0,1,1,2.17,3.12,3.12,0,0,1-2.46,3.11,3.73,3.73,0,0,1,2.2,1.07,2.93,2.93,0,0,1,.77,2.1,3.42,3.42,0,0,1-1.34,2.88,6.17,6.17,0,0,1-3.75,1l-1,0c-.37,0-.78,0-1.24,0-.75,0-1.52,0-2.3,0l0-.4,1.14-.34a.3.3,0,0,0,.25-.29c0-.24,0-.52,0-.83V22.25c0-.25,0-.48,0-.69a.3.3,0,0,0-.22-.31l-1.15-.36Zm3.23,5.79H90A2.93,2.93,0,0,0,92,25.62a2.53,2.53,0,0,0,.69-1.92A2.34,2.34,0,0,0,92,21.79a3.21,3.21,0,0,0-2.07-.58h-.52l-.62.06Zm0,.74v5.63a2.34,2.34,0,0,0,.64.13l.67,0a3.28,3.28,0,0,0,2.33-.76,2.9,2.9,0,0,0,.8-2.21,2.69,2.69,0,0,0-.81-2.15,3.9,3.9,0,0,0-2.61-.7Q89.29,27,88.79,27Z"/><path d="M102.76,20.29l4.12,11.35a3.32,3.32,0,0,0,.42.87,1.13,1.13,0,0,0,.54.33l.88.26,0,.4c-.82,0-1.57,0-2.26,0s-1.54,0-2.49,0l0-.4.88-.26a.69.69,0,0,0,.26-.14.29.29,0,0,0,.08-.24,1.77,1.77,0,0,0-.09-.49c-.07-.2-.16-.47-.28-.8l-.87-2.49H99.46l-1,2.48c-.13.34-.23.62-.3.82a1.42,1.42,0,0,0-.11.48.33.33,0,0,0,.08.24.84.84,0,0,0,.27.14l.86.25,0,.41c-.88,0-1.6,0-2.15,0s-1.18,0-1.87,0l0-.4.93-.28a1,1,0,0,0,.52-.35,3.32,3.32,0,0,0,.37-.72l4.75-11.32Zm-3,7.54h3.82l-1.81-5.11Z"/><path d="M58.28,11.68a.41.41,0,0,0,0-.12.19.19,0,0,0,0-.09l-.08-.05H58l-.29,0,0-.15.34-.06.38-.05.39-.05h.67l.27.05a1.33,1.33,0,0,1,.24.1.86.86,0,0,1,.18.14.57.57,0,0,1,.13.21.77.77,0,0,1,0,.27.8.8,0,0,1-.08.39.81.81,0,0,1-.21.3,1.34,1.34,0,0,1-.31.22,2.32,2.32,0,0,1-.37.13v0a1.78,1.78,0,0,1,.47.09,1,1,0,0,1,.38.19.89.89,0,0,1,.24.3.94.94,0,0,1,.09.43,1.38,1.38,0,0,1,0,.37,1,1,0,0,1-.16.3,1,1,0,0,1-.24.22,1.43,1.43,0,0,1-.3.16,1.3,1.3,0,0,1-.34.08,2.1,2.1,0,0,1-.36,0,1.27,1.27,0,0,1-.28,0l-.3,0-.33,0h0c0-.15,0-.31,0-.49s0-.36,0-.55l0-.58c0-.2,0-.4,0-.61s0-.4,0-.6Zm.32,3.18.24.05h.24a1.34,1.34,0,0,0,.4-.06.74.74,0,0,0,.32-.16.7.7,0,0,0,.21-.29,1,1,0,0,0,.08-.42A.93.93,0,0,0,60,13.6a.73.73,0,0,0-.23-.29,1,1,0,0,0-.37-.17,1.85,1.85,0,0,0-.5-.06h-.22v.24a2.81,2.81,0,0,0,0,.3c0,.11,0,.22,0,.33s0,.22,0,.33,0,.21,0,.31S58.61,14.78,58.6,14.86Zm.13-3.53c0,.07,0,.16,0,.27s0,.23,0,.36,0,.28,0,.44,0,.32,0,.5a1.53,1.53,0,0,0,.3,0,1.18,1.18,0,0,0,.27-.06l.25-.11a1.06,1.06,0,0,0,.2-.17.71.71,0,0,0,.12-.23.67.67,0,0,0,.05-.3.81.81,0,0,0-.06-.33.51.51,0,0,0-.17-.21.62.62,0,0,0-.26-.12,1.12,1.12,0,0,0-.32,0H58.9Z"/><path d="M61.61,12.67c0,.13,0,.26,0,.39a2.53,2.53,0,0,0,0,.38c0,.12,0,.24,0,.34s0,.21,0,.3a2.63,2.63,0,0,0,0,.3,1.41,1.41,0,0,0,0,.22c0,.06,0,.1,0,.14a.22.22,0,0,0,.05.08s0,0,.06,0h.08a.62.62,0,0,0,.18,0l.19-.07,0,.09A.74.74,0,0,1,62,15a1.11,1.11,0,0,1-.19.09,1,1,0,0,1-.2.07l-.17,0h-.09a.13.13,0,0,1-.07,0A.35.35,0,0,1,61.2,15a1.23,1.23,0,0,1,0-.16,1.72,1.72,0,0,1,0-.26c0-.1,0-.22,0-.37v-.29c0-.11,0-.22,0-.35s0-.25,0-.39l0-.42a.19.19,0,0,1,0-.08l.06,0,.07,0h.06A.42.42,0,0,1,61.61,12.67Zm-.15-.77a.2.2,0,0,1-.11,0s-.05,0-.08-.06a.36.36,0,0,1,0-.09.23.23,0,0,1,0-.11.59.59,0,0,1,0-.14.36.36,0,0,1,.07-.1l.09-.06.1,0a.17.17,0,0,1,.1,0l.08,0a.41.41,0,0,1,0,.09.2.2,0,0,1,0,.11.43.43,0,0,1,0,.11.36.36,0,0,1-.15.19A.2.2,0,0,1,61.46,11.9Z"/><path d="M62.21,16.38c0-.24,0-.48,0-.72l-.06-.72a0,0,0,0,1,0,0h.19c.06-.17.13-.34.2-.52l.22-.54.26-.56c.1-.19.2-.39.32-.59l0-.06.06,0h.21l.1,0c0,.2.06.37.09.53s.05.31.08.45.05.26.08.38a2.66,2.66,0,0,0,.08.33c0,.11.05.21.07.3l.09.29h.29l0,0,0,0h0v0c0,.23-.07.47-.11.71s-.07.47-.1.71h-.13c0-.22,0-.44,0-.65s0-.44,0-.66H62.47l0,.32,0,.33,0,.34,0,.32Zm1.36-1.48h.26l-.12-.44c0-.15-.06-.3-.1-.46l-.09-.51-.09-.57h0a10.63,10.63,0,0,0-.5,1c-.14.33-.26.65-.36,1h1Z"/><path d="M64.82,13.11s0-.07,0-.1a.19.19,0,0,0,0-.08.12.12,0,0,0-.05,0l-.09,0-.14,0-.2,0,0-.13.47-.14.25-.05h.09a.18.18,0,0,1,.07.05.15.15,0,0,1,0,.08.22.22,0,0,1,0,.12,2.72,2.72,0,0,1,0,.28c0,.1,0,.21,0,.32a.71.71,0,0,0,0,.14.42.42,0,0,0,0,.15.38.38,0,0,0,.11.11.41.41,0,0,0,.21.05l.27,0a2,2,0,0,0,.36-.13v-.27a2.35,2.35,0,0,0,0-.26,2,2,0,0,1,0-.25v-.21s0-.06,0-.08l0,0,.06,0h.18l.1,0,0,.39,0,.38c0,.13,0,.25,0,.36s0,.22,0,.32v.29c0,.08,0,.15,0,.2s0,.1,0,.14a.24.24,0,0,0,0,.07l.06,0h.08l.18,0,.19-.07,0,.09-.09.07L67,15a.35.35,0,0,1-.14.06l-.13,0-.13,0h-.19a.1.1,0,0,1-.07,0,.39.39,0,0,1,0-.09.35.35,0,0,1,0-.16,1.84,1.84,0,0,1,0-.26c0-.1,0-.23,0-.38v-.29a2.09,2.09,0,0,1-.41.17,1.74,1.74,0,0,1-.39.05.85.85,0,0,1-.23,0A.56.56,0,0,1,65,14a.4.4,0,0,1-.12-.16.51.51,0,0,1,0-.22.86.86,0,0,1,0-.17v-.23S64.82,13.16,64.82,13.11Z"/><path d="M68.05,15.09,68,14.75c0-.12-.07-.24-.11-.36s-.07-.24-.1-.35-.07-.23-.1-.33-.07-.21-.09-.29-.06-.17-.08-.24L67.41,13a.43.43,0,0,0-.07-.1l-.08-.05h-.2l-.15,0,0-.12.2-.07.18-.05.15,0h.18a.24.24,0,0,1,.08.06.35.35,0,0,1,.08.11l.07.17a1.16,1.16,0,0,0,.06.16c0,.07,0,.15.07.23s.05.18.08.28l.09.32.09.34.09.34.18-.47c.06-.16.12-.32.19-.49s.12-.32.19-.48.12-.32.18-.47l0-.06.06,0,.07,0h.18l.1,0-.16.28-.17.33a3,3,0,0,0-.17.36l-.18.38c-.06.13-.12.26-.17.39s-.11.27-.17.39l-.15.39c0,.12-.09.24-.14.36s-.09.23-.13.34-.09.21-.14.31l-.13.24a1.12,1.12,0,0,1-.17.2.8.8,0,0,1-.19.13.6.6,0,0,1-.24.05l-.14,0-.11-.06a.18.18,0,0,1-.07-.08.19.19,0,0,1,0-.22.24.24,0,0,1,.08-.09l.15.07h.13a.43.43,0,0,0,.25-.07.77.77,0,0,0,.2-.23,2.63,2.63,0,0,0,.2-.38l.21-.54,0-.09Z"/><path d="M69.66,15.12h0l0-.56c0-.2,0-.4,0-.6s0-.4,0-.61,0-.39,0-.58a.14.14,0,0,1,.06-.12.27.27,0,0,1,.16,0H70l.11,0c0,.15,0,.31,0,.47l0,.49c0,.16,0,.34,0,.51l0,.55h0l.61-1c.21-.34.43-.67.64-1l.39-.05h0c0,.07,0,.14,0,.23a2.46,2.46,0,0,1,0,.26,2.64,2.64,0,0,1,0,.28c0,.1,0,.2,0,.29a2.44,2.44,0,0,0,0,.27,1.85,1.85,0,0,0,0,.23c0,.14,0,.26,0,.35a.87.87,0,0,0,0,.21.2.2,0,0,0,.07.1.2.2,0,0,0,.11,0l.18,0,.19-.07,0,.09a1,1,0,0,1-.15.1l-.19.09a1,1,0,0,1-.2.07l-.19,0a.22.22,0,0,1-.14-.05.35.35,0,0,1-.09-.16,1.45,1.45,0,0,1,0-.25c0-.1,0-.22,0-.34v-.16c0-.06,0-.13,0-.21s0-.15,0-.23a2.28,2.28,0,0,1,0-.26,2.11,2.11,0,0,1,0-.25,1.79,1.79,0,0,1,0-.23h0c-.22.34-.44.68-.65,1l-.62,1Zm2-3.83a1.82,1.82,0,0,1-.07.25c0,.08-.07.16-.12.24a1.13,1.13,0,0,1-.15.21.79.79,0,0,1-.2.17.84.84,0,0,1-.23.12.77.77,0,0,1-.27,0,.68.68,0,0,1-.26,0,.77.77,0,0,1-.18-.1.33.33,0,0,1-.1-.14.28.28,0,0,1,0-.15.3.3,0,0,1,0-.1.26.26,0,0,1,.05-.09l.08-.06.11,0h.06a.78.78,0,0,0,0,.18l.09.11.12.07h.14a.6.6,0,0,0,.27-.06.72.72,0,0,0,.22-.17,1.46,1.46,0,0,0,.17-.24c0-.09.08-.18.11-.27Z"/><path d="M75,13.32a.45.45,0,0,0,0-.19.28.28,0,0,0,0-.13.17.17,0,0,0-.07-.1.21.21,0,0,0-.11-.07.41.41,0,0,0-.16,0,.6.6,0,0,0-.24,0,.59.59,0,0,0-.19.13.86.86,0,0,0-.14.18,1,1,0,0,0-.09.24,1,1,0,0,0,0,.25,1.06,1.06,0,0,0,0,.25,1.25,1.25,0,0,0,.06.4,1,1,0,0,0,.15.31.74.74,0,0,0,.23.2.64.64,0,0,0,.27.07.65.65,0,0,0,.32-.09.92.92,0,0,0,.31-.26l0,0,0,0,0,0v0h0A1.15,1.15,0,0,1,75,15a1,1,0,0,1-.51.13.82.82,0,0,1-.28,0A.7.7,0,0,1,74,15a.77.77,0,0,1-.18-.18,1.59,1.59,0,0,1-.13-.22,1.83,1.83,0,0,1-.08-.25,1.14,1.14,0,0,1,0-.26,1.47,1.47,0,0,1,0-.36,1.49,1.49,0,0,1,.3-.66,1.14,1.14,0,0,1,.24-.25,1.11,1.11,0,0,1,.3-.17,1.12,1.12,0,0,1,.62,0,1,1,0,0,1,.21.1.5.5,0,0,1,.14.15.42.42,0,0,1,0,.2.5.5,0,0,1,0,.12.35.35,0,0,1-.06.09.24.24,0,0,1-.09.06l-.12,0h-.07l-.08,0Z"/><path d="M78.44,14.87l-.15.1-.19.09-.19.06-.17,0h-.09a.13.13,0,0,1-.07,0,.18.18,0,0,1-.06-.08,1.23,1.23,0,0,1,0-.16c0-.06,0-.15,0-.24v-.78c0-.12,0-.23,0-.32s0-.18,0-.25,0-.12,0-.17,0-.06,0-.09a.14.14,0,0,0,0-.07s0,0-.06,0l-.1,0h-.85a.13.13,0,0,0,0,.06V13s0,.12,0,.23,0,.25,0,.43,0,.37,0,.6,0,.49,0,.77l-.37,0h0c0-.11,0-.23,0-.36s0-.24,0-.37,0-.24,0-.36,0-.23,0-.33,0-.2,0-.28v-.34A.81.81,0,0,0,76,13a.22.22,0,0,0,0-.08l-.09,0-.15,0h-.2v-.14h2.21a.16.16,0,0,1,.11,0,.18.18,0,0,1,0,.11v.09l0,.17a1.8,1.8,0,0,1,0,.22,2.28,2.28,0,0,1,0,.26c0,.09,0,.19,0,.28s0,.19,0,.28,0,.21,0,.29a1.06,1.06,0,0,0,0,.21c0,.06,0,.1,0,.14a.18.18,0,0,0,0,.07l.06,0h.08a.51.51,0,0,0,.17,0,.64.64,0,0,0,.18-.06Z"/><path d="M78.33,12.79l.32-.09.23-.06.14,0h.16l.07,0a.79.79,0,0,1,0,.09.49.49,0,0,1,0,.13V13a1.79,1.79,0,0,1,0,.21c0,.08,0,.19,0,.32s0,.28,0,.45h0a4.49,4.49,0,0,1,.28-.58,2.67,2.67,0,0,1,.32-.43,1.28,1.28,0,0,1,.32-.27.58.58,0,0,1,.3-.09.46.46,0,0,1,.21.05.53.53,0,0,1,.15.11,1,1,0,0,1,.11.17,1.18,1.18,0,0,1,.07.2,1.55,1.55,0,0,1,0,.21,1.34,1.34,0,0,1,0,.2A1.83,1.83,0,0,1,81,14a1.72,1.72,0,0,1-.14.4,1.48,1.48,0,0,1-.21.32,1.16,1.16,0,0,1-.26.24.85.85,0,0,1-.3.15.81.81,0,0,1-.31.06.91.91,0,0,1-.32-.06.89.89,0,0,1-.29-.2c0,.28,0,.58,0,.88s0,.63,0,1l-.36,0h0c0-.21,0-.44.05-.67s0-.47,0-.71,0-.47,0-.69,0-.45,0-.65,0-.38,0-.54V13a.34.34,0,0,0,0-.08s0,0-.06,0l-.1,0h-.15l-.22.05Zm.88,1.93a1.15,1.15,0,0,0,.29.18.75.75,0,0,0,.29.06.78.78,0,0,0,.35-.08.71.71,0,0,0,.28-.24,1.13,1.13,0,0,0,.18-.4,1.84,1.84,0,0,0,.07-.55,1.94,1.94,0,0,0,0-.24,1.42,1.42,0,0,0-.05-.22.38.38,0,0,0-.11-.16.18.18,0,0,0-.15-.07.39.39,0,0,0-.2.06.66.66,0,0,0-.2.14,1.29,1.29,0,0,0-.19.21l-.17.27a2.44,2.44,0,0,0-.14.28c0,.1-.08.19-.11.28a1.86,1.86,0,0,0-.08.26C79.23,14.59,79.22,14.66,79.21,14.72Z"/><path d="M82.87,13.32a.6.6,0,0,0-.05-.24.41.41,0,0,0-.28-.25l-.18,0a.59.59,0,0,0-.2,0,.46.46,0,0,0-.14.07A.26.26,0,0,0,82,13a.28.28,0,0,0,0,.13.45.45,0,0,0,0,.16.51.51,0,0,0,.09.16v0a.49.49,0,0,1-.2,0l-.11,0-.09-.05a.22.22,0,0,1,0-.08.23.23,0,0,1,0-.11.41.41,0,0,1,0-.19,1.09,1.09,0,0,1,.13-.17l.19-.13.22-.1.22-.06.21,0a.91.91,0,0,1,.31.05.52.52,0,0,1,.21.14.51.51,0,0,1,.11.22.88.88,0,0,1,0,.29,2.18,2.18,0,0,1,0,.25c0,.09,0,.19,0,.28s0,.2,0,.31,0,.21,0,.31a.61.61,0,0,0,.09.37.29.29,0,0,0,.24.13.59.59,0,0,0,.29-.1l0,.07a.72.72,0,0,1-.25.18.67.67,0,0,1-.28.06.65.65,0,0,1-.2,0A.5.5,0,0,1,83,15a.57.57,0,0,1-.1-.19.71.71,0,0,1,0-.26v-.09s0-.06,0-.09h0a2.09,2.09,0,0,1-.17.28,1.33,1.33,0,0,1-.21.26l-.24.18a.55.55,0,0,1-.28.07.46.46,0,0,1-.21,0,.71.71,0,0,1-.17-.11.62.62,0,0,1-.11-.17.78.78,0,0,1,0-.22.6.6,0,0,1,.06-.27.86.86,0,0,1,.15-.22,1,1,0,0,1,.24-.17,1.48,1.48,0,0,1,.29-.12l.35-.07.36,0c0-.07,0-.14,0-.21A1.55,1.55,0,0,0,82.87,13.32Zm-1.05,1.17a.53.53,0,0,0,0,.13.54.54,0,0,0,0,.11.27.27,0,0,0,.08.07.22.22,0,0,0,.12,0l.16,0,.16-.1a1.06,1.06,0,0,0,.15-.15,1.27,1.27,0,0,0,.13-.19,2.14,2.14,0,0,0,.1-.22,2,2,0,0,0,0-.24l-.25,0a.86.86,0,0,0-.24,0,.74.74,0,0,0-.21.07.46.46,0,0,0-.16.11.33.33,0,0,0-.11.15A.46.46,0,0,0,81.82,14.49Z"/><path d="M83.74,12.74l.29-.05.32,0,.33,0,.32,0h.19l.21,0a.66.66,0,0,1,.2.06.46.46,0,0,1,.17.09.44.44,0,0,1,.12.15.38.38,0,0,1,0,.19.49.49,0,0,1-.06.25.77.77,0,0,1-.16.19.71.71,0,0,1-.22.13,1.13,1.13,0,0,1-.24.08h0a.84.84,0,0,1,.27,0,.82.82,0,0,1,.25.1.52.52,0,0,1,.18.18.47.47,0,0,1,.07.27,1,1,0,0,1,0,.25.76.76,0,0,1-.12.19l-.18.15-.23.1a1,1,0,0,1-.25.06l-.25,0-.23,0-.21,0-.32,0h0c0-.2,0-.39,0-.58l0-.55c0-.17,0-.34,0-.5s0-.3,0-.43a.36.36,0,0,0,0-.11s0,0,0-.06a.09.09,0,0,0-.07,0h-.22l-.15,0Zm.83,2.13.19.07L85,15a1,1,0,0,0,.25,0,.7.7,0,0,0,.21-.11.57.57,0,0,0,.2-.43.36.36,0,0,0-.07-.24.44.44,0,0,0-.17-.16,1,1,0,0,0-.25-.08l-.29,0h-.22Zm.09-2.09s0,.1,0,.16a1.93,1.93,0,0,1,0,.23,2.62,2.62,0,0,1,0,.27c0,.09,0,.2,0,.3l.33,0a1.23,1.23,0,0,0,.29-.09.55.55,0,0,0,.2-.17.46.46,0,0,0,.08-.27.33.33,0,0,0-.06-.21.29.29,0,0,0-.14-.13.66.66,0,0,0-.2-.06.75.75,0,0,0-.21,0h-.12Z"/><path d="M87.77,13.89l-.52.4-.35.3a1.26,1.26,0,0,0-.2.24.35.35,0,0,0-.07.21v.06a.07.07,0,0,1,0,.05h0a.31.31,0,0,1-.13,0l-.09,0a.15.15,0,0,1-.07,0,.18.18,0,0,1,0-.07.11.11,0,0,1,0-.08.16.16,0,0,1,0-.1.41.41,0,0,1,.06-.11l.13-.13.21-.16.3-.23.4-.29-.14-.19L87,13.41c-.08-.1-.14-.19-.2-.25a1.47,1.47,0,0,0-.13-.17l-.1-.09-.09,0h-.09a1.18,1.18,0,0,0-.25,0l0-.12.18,0,.17-.06.15,0,.11,0h.07a.25.25,0,0,1,.08.05.93.93,0,0,1,.1.1l.14.18.21.28.28.4.17.24Zm0,1.23h0c0-.21,0-.42,0-.62l0-.58c0-.19,0-.38,0-.58s0-.38,0-.58a.11.11,0,0,1,0-.08.1.1,0,0,1,.05,0s0,0,.06,0h.17l.1,0q0,.13,0,.3c0,.11,0,.24,0,.37l0,.41c0,.15,0,.3,0,.45s0,.3,0,.45,0,.29,0,.43Zm.43-1.21v0l.35-.28.26-.23.18-.19.11-.15a.69.69,0,0,0,0-.13.5.5,0,0,0,0-.12.77.77,0,0,0,0-.15v0l.12,0,.09,0,.08,0a.15.15,0,0,1,.05.06.3.3,0,0,1,0,.1.44.44,0,0,1,0,.1.37.37,0,0,1-.06.1.57.57,0,0,1-.11.12,1.36,1.36,0,0,1-.17.16l-.25.22-.34.29.31.42c.08.11.15.21.22.29l.15.19.12.11a.18.18,0,0,0,.09,0l.1,0,.15,0,.17,0,0,.09-.18.11-.18.08-.16,0a.3.3,0,0,1-.12,0,.2.2,0,0,1-.11,0,.41.41,0,0,1-.12-.09l-.17-.19-.23-.32-.26-.35Z"/><path d="M90.34,13.11a.31.31,0,0,0,0-.1.19.19,0,0,0,0-.08l0,0-.09,0-.14,0-.2,0,0-.13.47-.14.26-.05h.08a.18.18,0,0,1,.07.05.28.28,0,0,1,0,.08.41.41,0,0,1,0,.12V13s0,.12,0,.2l0,.26c0,.1,0,.19,0,.3h1.16c0-.14,0-.29,0-.44s0-.32,0-.49a.11.11,0,0,1,0-.08l0,0,.07,0h.17l.11,0c0,.13,0,.26,0,.39l0,.38c0,.12,0,.23,0,.34s0,.21,0,.3a2.63,2.63,0,0,0,0,.3c0,.09,0,.16,0,.22a.39.39,0,0,0,0,.14.15.15,0,0,0,0,.08l.07,0h.07l.18,0,.18-.07,0,.09a.56.56,0,0,1-.15.1.72.72,0,0,1-.2.09.8.8,0,0,1-.2.07l-.16,0H92a.13.13,0,0,1-.07,0,.19.19,0,0,1,0-.09.53.53,0,0,1,0-.16c0-.07,0-.16,0-.26v-.71h-.58l-.59,0c0,.18,0,.36,0,.56s0,.39,0,.59l-.37,0h0q0-.16,0-.36c0-.14,0-.27,0-.4s0-.27,0-.4,0-.25,0-.36a2.81,2.81,0,0,1,0-.3Z"/><path d="M93.67,12.67c0,.13,0,.26,0,.39s0,.26,0,.38,0,.24,0,.34,0,.21,0,.3v.3c0,.09,0,.16,0,.22s0,.1,0,.14a.22.22,0,0,0,0,.08.09.09,0,0,0,.06,0h.08a.52.52,0,0,0,.17,0l.2-.07,0,.09A.74.74,0,0,1,94,15a1.11,1.11,0,0,1-.19.09,1,1,0,0,1-.2.07l-.17,0h-.09a.1.1,0,0,1-.07,0,.35.35,0,0,1-.06-.09,1.23,1.23,0,0,1,0-.16,1.72,1.72,0,0,1,0-.26c0-.1,0-.22,0-.37v-.29c0-.11,0-.22,0-.35s0-.25,0-.39,0-.28,0-.42l0-.08s0,0,0,0l.07,0h.07A.42.42,0,0,1,93.67,12.67Zm-.15-.77a.2.2,0,0,1-.11,0s0,0-.08-.06a.41.41,0,0,1,0-.09.45.45,0,0,1,0-.11.59.59,0,0,1,0-.14.36.36,0,0,1,.07-.1l.09-.06.1,0a.17.17,0,0,1,.1,0l.08,0a.41.41,0,0,1,0,.09.36.36,0,0,1,0,.11.43.43,0,0,1,0,.11.36.36,0,0,1-.15.19A.2.2,0,0,1,93.52,11.9Z"/><path d="M94.59,15.12h0c0-.17,0-.34,0-.52l0-.54c0-.18,0-.35,0-.51s0-.31,0-.44a.32.32,0,0,0,0-.19.14.14,0,0,0-.13-.06l-.14,0-.2,0,0-.13.24-.08.21-.06.16,0h.2a.18.18,0,0,1,.07.05.22.22,0,0,1,0,.08.41.41,0,0,1,0,.12v.18c0,.07,0,.16,0,.25s0,.19,0,.3l0,.34c0,.12,0,.24,0,.36s0,.25,0,.38h0c.2-.34.41-.68.62-1s.42-.67.64-1l.39-.05h0a2.15,2.15,0,0,1,0,.23,2.46,2.46,0,0,1,0,.26c0,.09,0,.19,0,.28s0,.2,0,.29,0,.18,0,.27v.23c0,.14,0,.26,0,.35a.87.87,0,0,0,0,.21.2.2,0,0,0,.07.1.2.2,0,0,0,.11,0l.18,0,.19-.07,0,.09L97,15a1.11,1.11,0,0,1-.19.09.68.68,0,0,1-.2.07.57.57,0,0,1-.18,0,.2.2,0,0,1-.14-.05.35.35,0,0,1-.09-.16,1.45,1.45,0,0,1,0-.25c0-.1,0-.22,0-.34v-.16a1.62,1.62,0,0,1,0-.21,1.85,1.85,0,0,1,0-.23c0-.09,0-.17,0-.26a2.11,2.11,0,0,0,0-.25l0-.23h0c-.22.34-.44.68-.65,1l-.63,1Zm2-3.83a1.83,1.83,0,0,1-.08.25,2.56,2.56,0,0,1-.11.24,1.16,1.16,0,0,1-.16.21.75.75,0,0,1-.19.17,1,1,0,0,1-.23.12.86.86,0,0,1-.28,0,.62.62,0,0,1-.25,0,.5.5,0,0,1-.18-.1A.36.36,0,0,1,95,12a.4.4,0,0,1,0-.15.16.16,0,0,1,0-.1.16.16,0,0,1,0-.09l.08-.06.11,0h.06a.48.48,0,0,0,0,.18.31.31,0,0,0,.09.11.35.35,0,0,0,.12.07h.13a.64.64,0,0,0,.28-.06.87.87,0,0,0,.22-.17,1.43,1.43,0,0,0,.16-.24c0-.09.08-.18.11-.27Z"/><path d="M99,15.55a.07.07,0,0,1,.06,0,.13.13,0,0,1,0,.08.11.11,0,0,1,0,.08.05.05,0,0,1-.06,0H97.93l-.51,0a2.7,2.7,0,0,0-.44.07.25.25,0,0,1,0-.12.13.13,0,0,1,.07-.08.23.23,0,0,1,.13-.06l.2,0,.29,0H99Z"/><path d="M100.15,15.55a.07.07,0,0,1,.06,0,.13.13,0,0,1,0,.08.11.11,0,0,1,0,.08.05.05,0,0,1-.06,0H98.22a.05.05,0,0,1-.06,0,.11.11,0,0,1,0-.08.13.13,0,0,1,0-.08.07.07,0,0,1,.06,0Z"/><path d="M101.26,15.55a.1.1,0,0,1,.07,0,.24.24,0,0,1,0,.08.19.19,0,0,1,0,.08.08.08,0,0,1-.07,0H99.34s-.06,0-.07,0a.11.11,0,0,1,0-.08.12.12,0,0,1,0-.08.07.07,0,0,1,.07,0Z"/><path d="M102.37,15.55a.1.1,0,0,1,.07,0,.24.24,0,0,1,0,.08.19.19,0,0,1,0,.08.08.08,0,0,1-.07,0h-1.92a.07.07,0,0,1-.07,0,.11.11,0,0,1,0-.08.12.12,0,0,1,0-.08.08.08,0,0,1,.07,0Z"/><path d="M103.48,15.55a.1.1,0,0,1,.07,0,.24.24,0,0,1,0,.08.19.19,0,0,1,0,.08.08.08,0,0,1-.07,0h-1.92a.07.07,0,0,1-.07,0,.11.11,0,0,1,0-.08.12.12,0,0,1,0-.08.08.08,0,0,1,.07,0Z"/><path d="M104.59,15.55a.1.1,0,0,1,.07,0,.24.24,0,0,1,0,.08.19.19,0,0,1,0,.08.08.08,0,0,1-.07,0h-1.92a.07.07,0,0,1-.07,0,.11.11,0,0,1,0-.08.12.12,0,0,1,0-.08.08.08,0,0,1,.07,0Z"/><path d="M105.7,15.55a.1.1,0,0,1,.07,0,.24.24,0,0,1,0,.08.19.19,0,0,1,0,.08.08.08,0,0,1-.07,0h-1.92a.08.08,0,0,1-.07,0,.19.19,0,0,1,0-.08.24.24,0,0,1,0-.08.1.1,0,0,1,.07,0Z"/><path d="M106.81,15.55a.1.1,0,0,1,.07,0,.24.24,0,0,1,0,.08.19.19,0,0,1,0,.08.08.08,0,0,1-.07,0h-1.92a.08.08,0,0,1-.07,0,.19.19,0,0,1,0-.08.24.24,0,0,1,0-.08.1.1,0,0,1,.07,0Z"/><path d="M107.92,15.55a.08.08,0,0,1,.07,0,.24.24,0,0,1,0,.08.19.19,0,0,1,0,.08.07.07,0,0,1-.07,0H106a.08.08,0,0,1-.07,0,.19.19,0,0,1,0-.08.24.24,0,0,1,0-.08.1.1,0,0,1,.07,0Z"/><path d="M107.11,15.79a.08.08,0,0,1-.07,0,.19.19,0,0,1,0-.08.24.24,0,0,1,0-.08.1.1,0,0,1,.07,0h1.34l.14,0a.36.36,0,0,1,0,.07s0,0,0,.06,0,.09-.11.11a1.31,1.31,0,0,1-.33,0Z"/><path d="M59.57,41.63a.07.07,0,0,1,.06,0,.13.13,0,0,1,0,.08.16.16,0,0,1,0,.09.06.06,0,0,1-.06,0H58.46l-.51,0a2.7,2.7,0,0,0-.44.07.2.2,0,0,1,0-.11.13.13,0,0,1,.07-.09.23.23,0,0,1,.13-.06l.2,0,.3,0h1.34Z"/><path d="M60.68,41.63a.1.1,0,0,1,.07,0,.24.24,0,0,1,0,.08.29.29,0,0,1,0,.09.09.09,0,0,1-.07,0H58.76a.08.08,0,0,1-.07,0,.15.15,0,0,1,0-.09.12.12,0,0,1,0-.08.08.08,0,0,1,.07,0Z"/><path d="M61.79,41.63a.1.1,0,0,1,.07,0,.24.24,0,0,1,0,.08.29.29,0,0,1,0,.09.09.09,0,0,1-.07,0H59.87a.08.08,0,0,1-.07,0,.15.15,0,0,1,0-.09.12.12,0,0,1,0-.08.08.08,0,0,1,.07,0Z"/><path d="M62.9,41.63a.1.1,0,0,1,.07,0,.24.24,0,0,1,0,.08.29.29,0,0,1,0,.09.09.09,0,0,1-.07,0H61a.08.08,0,0,1-.07,0,.15.15,0,0,1,0-.09.12.12,0,0,1,0-.08.08.08,0,0,1,.07,0Z"/><path d="M64,41.63a.1.1,0,0,1,.07,0,.24.24,0,0,1,0,.08.29.29,0,0,1,0,.09.09.09,0,0,1-.07,0H62.09a.08.08,0,0,1-.07,0,.29.29,0,0,1,0-.09.24.24,0,0,1,0-.08.08.08,0,0,1,.07,0Z"/><path d="M65.12,41.63a.1.1,0,0,1,.07,0,.24.24,0,0,1,0,.08.29.29,0,0,1,0,.09.09.09,0,0,1-.07,0H63.2a.09.09,0,0,1-.07,0,.29.29,0,0,1,0-.09.24.24,0,0,1,0-.08.1.1,0,0,1,.07,0Z"/><path d="M66.23,41.63a.1.1,0,0,1,.07,0,.24.24,0,0,1,0,.08.29.29,0,0,1,0,.09.09.09,0,0,1-.07,0H64.31a.09.09,0,0,1-.07,0,.29.29,0,0,1,0-.09.24.24,0,0,1,0-.08.1.1,0,0,1,.07,0Z"/><path d="M67.34,41.63a.08.08,0,0,1,.07,0,.24.24,0,0,1,0,.08.29.29,0,0,1,0,.09.08.08,0,0,1-.07,0H65.42a.09.09,0,0,1-.07,0,.29.29,0,0,1,0-.09.24.24,0,0,1,0-.08.1.1,0,0,1,.07,0Z"/><path d="M68.45,41.63a.08.08,0,0,1,.07,0,.12.12,0,0,1,0,.08.15.15,0,0,1,0,.09.08.08,0,0,1-.07,0H66.53a.09.09,0,0,1-.07,0,.29.29,0,0,1,0-.09.24.24,0,0,1,0-.08.1.1,0,0,1,.07,0Z"/><path d="M69.56,41.63a.08.08,0,0,1,.07,0,.12.12,0,0,1,0,.08.15.15,0,0,1,0,.09.08.08,0,0,1-.07,0H67.64a.09.09,0,0,1-.07,0,.29.29,0,0,1,0-.09.24.24,0,0,1,0-.08.1.1,0,0,1,.07,0Z"/><path d="M70.67,41.63a.07.07,0,0,1,.07,0,.13.13,0,0,1,0,.08.16.16,0,0,1,0,.09s0,0-.07,0H68.75a.06.06,0,0,1-.06,0,.16.16,0,0,1,0-.09.13.13,0,0,1,0-.08.07.07,0,0,1,.06,0Z"/><path d="M71.79,41.63a.07.07,0,0,1,.06,0,.13.13,0,0,1,0,.08.16.16,0,0,1,0,.09.06.06,0,0,1-.06,0H69.86a.06.06,0,0,1-.06,0,.16.16,0,0,1,0-.09.13.13,0,0,1,0-.08.07.07,0,0,1,.06,0Z"/><path d="M72.9,41.63a.07.07,0,0,1,.06,0,.13.13,0,0,1,0,.08.16.16,0,0,1,0,.09.06.06,0,0,1-.06,0H71s-.06,0-.07,0a.16.16,0,0,1,0-.09.13.13,0,0,1,0-.08.07.07,0,0,1,.07,0Z"/><path d="M74,41.63a.1.1,0,0,1,.07,0,.24.24,0,0,1,0,.08.29.29,0,0,1,0,.09.09.09,0,0,1-.07,0H72.09a.08.08,0,0,1-.07,0,.15.15,0,0,1,0-.09.12.12,0,0,1,0-.08.08.08,0,0,1,.07,0Z"/><path d="M75.12,41.63a.1.1,0,0,1,.07,0,.24.24,0,0,1,0,.08.29.29,0,0,1,0,.09.09.09,0,0,1-.07,0H73.2a.08.08,0,0,1-.07,0,.15.15,0,0,1,0-.09.12.12,0,0,1,0-.08.08.08,0,0,1,.07,0Z"/><path d="M76.23,41.63a.1.1,0,0,1,.07,0,.24.24,0,0,1,0,.08.29.29,0,0,1,0,.09.09.09,0,0,1-.07,0H74.31a.08.08,0,0,1-.07,0,.15.15,0,0,1,0-.09.12.12,0,0,1,0-.08.08.08,0,0,1,.07,0Z"/><path d="M77.34,41.63a.1.1,0,0,1,.07,0,.24.24,0,0,1,0,.08.29.29,0,0,1,0,.09.09.09,0,0,1-.07,0H75.42a.08.08,0,0,1-.07,0,.29.29,0,0,1,0-.09.24.24,0,0,1,0-.08.08.08,0,0,1,.07,0Z"/><path d="M78.45,41.63a.1.1,0,0,1,.07,0,.24.24,0,0,1,0,.08.29.29,0,0,1,0,.09.09.09,0,0,1-.07,0H76.53a.09.09,0,0,1-.07,0,.29.29,0,0,1,0-.09.24.24,0,0,1,0-.08.1.1,0,0,1,.07,0Z"/><path d="M79.56,41.63a.1.1,0,0,1,.07,0,.24.24,0,0,1,0,.08.29.29,0,0,1,0,.09.09.09,0,0,1-.07,0H77.64a.09.09,0,0,1-.07,0,.29.29,0,0,1,0-.09.24.24,0,0,1,0-.08.1.1,0,0,1,.07,0Z"/><path d="M80.67,41.63a.08.08,0,0,1,.07,0,.24.24,0,0,1,0,.08.29.29,0,0,1,0,.09.08.08,0,0,1-.07,0H78.75a.09.09,0,0,1-.07,0,.29.29,0,0,1,0-.09.24.24,0,0,1,0-.08.1.1,0,0,1,.07,0Z"/><path d="M81.78,41.63a.08.08,0,0,1,.07,0,.12.12,0,0,1,0,.08.15.15,0,0,1,0,.09.08.08,0,0,1-.07,0H79.86a.09.09,0,0,1-.07,0,.29.29,0,0,1,0-.09.24.24,0,0,1,0-.08.1.1,0,0,1,.07,0Z"/><path d="M82.89,41.63a.08.08,0,0,1,.07,0,.12.12,0,0,1,0,.08.15.15,0,0,1,0,.09.08.08,0,0,1-.07,0H81a.09.09,0,0,1-.07,0,.29.29,0,0,1,0-.09.24.24,0,0,1,0-.08.1.1,0,0,1,.07,0Z"/><path d="M84,41.63a.07.07,0,0,1,.07,0,.13.13,0,0,1,0,.08.16.16,0,0,1,0,.09s0,0-.07,0H82.08a.06.06,0,0,1-.06,0,.16.16,0,0,1,0-.09.13.13,0,0,1,0-.08.07.07,0,0,1,.06,0Z"/><path d="M85.12,41.63a.07.07,0,0,1,.06,0,.13.13,0,0,1,0,.08.16.16,0,0,1,0,.09.06.06,0,0,1-.06,0H83.19a.06.06,0,0,1-.06,0,.16.16,0,0,1,0-.09.13.13,0,0,1,0-.08.07.07,0,0,1,.06,0Z"/><path d="M86.23,41.63a.07.07,0,0,1,.06,0,.13.13,0,0,1,0,.08.16.16,0,0,1,0,.09.06.06,0,0,1-.06,0H84.31s-.06,0-.07,0a.16.16,0,0,1,0-.09.13.13,0,0,1,0-.08.07.07,0,0,1,.07,0Z"/><path d="M85.42,41.87a.08.08,0,0,1-.07,0,.15.15,0,0,1,0-.09.12.12,0,0,1,0-.08.08.08,0,0,1,.07,0h1.34l.14,0a.25.25,0,0,1,0,.07.18.18,0,0,1,0,.06c0,.06,0,.09-.11.11a1.31,1.31,0,0,1-.33,0Z"/><path d="M88.16,39.4a.45.45,0,0,0,0-.19.28.28,0,0,0,0-.13.23.23,0,0,0-.07-.1.26.26,0,0,0-.11-.07.41.41,0,0,0-.16,0,.6.6,0,0,0-.24,0,.5.5,0,0,0-.19.13.72.72,0,0,0-.14.19.79.79,0,0,0-.09.23,1,1,0,0,0-.06.25,2.09,2.09,0,0,0,0,.25,1.62,1.62,0,0,0,0,.4,1,1,0,0,0,.16.31.74.74,0,0,0,.23.2.6.6,0,0,0,.27.07.76.76,0,0,0,.32-.08,1.25,1.25,0,0,0,.31-.27l0,0,0,0,0,0s0,0,0,0h0a1.15,1.15,0,0,1-.39.4,1,1,0,0,1-.51.14.82.82,0,0,1-.28,0,.61.61,0,0,1-.23-.11.77.77,0,0,1-.18-.18,1,1,0,0,1-.13-.22,1,1,0,0,1-.08-.25,1.15,1.15,0,0,1,0-.26,2.2,2.2,0,0,1,0-.36,2.06,2.06,0,0,1,.12-.35,1.92,1.92,0,0,1,.18-.31,1.48,1.48,0,0,1,.25-.25,1.11,1.11,0,0,1,.3-.17,1,1,0,0,1,.36-.06,1.09,1.09,0,0,1,.26,0,1,1,0,0,1,.21.1.5.5,0,0,1,.14.15.46.46,0,0,1,0,.2.43.43,0,0,1,0,.12l-.06.09a.24.24,0,0,1-.09.06l-.12,0h-.08l-.08,0Z"/><path d="M90.16,41.22c0-.15-.1-.31-.16-.48s-.11-.35-.17-.53l-.18-.55c-.06-.18-.12-.35-.17-.51h0l0,.41c0,.13,0,.26,0,.4s0,.26,0,.4,0,.27,0,.41,0,.17,0,.23a.81.81,0,0,1-.06.13.16.16,0,0,1-.09.07h-.31l0,0a1.46,1.46,0,0,0,.13-.25,2.64,2.64,0,0,0,.1-.3,3.37,3.37,0,0,0,.09-.34c0-.11,0-.22.07-.33s0-.22,0-.32,0-.19,0-.27a1.54,1.54,0,0,0,0-.19.44.44,0,0,0,0-.09.22.22,0,0,0,0-.13.23.23,0,0,0-.13,0H89l-.17,0,0-.12a1.53,1.53,0,0,1,.26-.08l.23-.06.17,0h.18l.06,0a.18.18,0,0,1,0,.07,1.17,1.17,0,0,1,.05.11c0,.12.09.24.13.38s.09.27.14.41.09.28.13.42.09.27.13.4h0c.14-.31.28-.62.42-.9s.29-.57.43-.82c0,0,0-.05,0-.06l.06,0h.11l.11,0,.1,0,0,.4,0,.37c0,.13,0,.24,0,.35s0,.21,0,.3v.31c0,.08,0,.15,0,.21a1.06,1.06,0,0,0,0,.14.29.29,0,0,0,0,.08l.06,0h.08l.16,0a.77.77,0,0,0,.17-.07l0,.09A.56.56,0,0,1,92,41l-.19.1-.19.06-.15,0h-.09a.13.13,0,0,1-.07,0,.19.19,0,0,1-.05-.09.53.53,0,0,1,0-.16c0-.07,0-.16,0-.26V40a2.17,2.17,0,0,1,0-.26,2.35,2.35,0,0,1,0-.26c0-.09,0-.19,0-.29h0c-.08.17-.17.34-.25.5l-.24.5-.24.51c-.07.18-.15.35-.22.54Z"/><path d="M93.74,39.4a.6.6,0,0,0,0-.24.64.64,0,0,0-.11-.16.56.56,0,0,0-.17-.09l-.18,0-.2,0-.14.07a.26.26,0,0,0-.07.11.28.28,0,0,0,0,.13.45.45,0,0,0,0,.16.7.7,0,0,0,.09.17h0a.34.34,0,0,1-.19.05.2.2,0,0,1-.11,0l-.09,0-.06-.08a.43.43,0,0,1,0-.11.41.41,0,0,1,0-.19.7.7,0,0,1,.13-.17l.19-.13.22-.1.22-.06.21,0a1,1,0,0,1,.31,0,.6.6,0,0,1,.21.14.51.51,0,0,1,.11.22.92.92,0,0,1,0,.29,2.18,2.18,0,0,1,0,.25c0,.09,0,.19,0,.29a2.83,2.83,0,0,0,0,.3c0,.1,0,.21,0,.31a.61.61,0,0,0,.09.37.27.27,0,0,0,.24.13.59.59,0,0,0,.29-.1l0,.07a.72.72,0,0,1-.25.18.67.67,0,0,1-.28.06.78.78,0,0,1-.21,0,.57.57,0,0,1-.16-.11.49.49,0,0,1-.1-.19.68.68,0,0,1,0-.26v-.09s0-.06,0-.09h0a3.09,3.09,0,0,1-.17.29,1.27,1.27,0,0,1-.21.25,1.05,1.05,0,0,1-.25.18.5.5,0,0,1-.27.07.54.54,0,0,1-.22,0,.64.64,0,0,1-.16-.11.62.62,0,0,1-.11-.17.54.54,0,0,1,0-.22.6.6,0,0,1,.06-.27.66.66,0,0,1,.15-.22,1,1,0,0,1,.24-.17,1.48,1.48,0,0,1,.29-.12l.34-.07.37,0c0-.07,0-.14,0-.21S93.74,39.48,93.74,39.4Zm-1,1.17a.53.53,0,0,0,0,.13.37.37,0,0,0,0,.11.27.27,0,0,0,.08.07.21.21,0,0,0,.12,0,.42.42,0,0,0,.15,0,.75.75,0,0,0,.17-.1,1.06,1.06,0,0,0,.15-.15,1.27,1.27,0,0,0,.13-.19,2.14,2.14,0,0,0,.1-.22,2,2,0,0,0,0-.24l-.26,0-.23,0L93,40.1l-.17.11a.49.49,0,0,0-.1.15A.46.46,0,0,0,92.69,40.57Z"/><path d="M95.05,41.2c0-.11,0-.23,0-.36s0-.25,0-.38,0-.27,0-.4,0-.25,0-.36,0-.21,0-.3v-.31l0-.08a.12.12,0,0,0,0,0l-.09,0-.14,0-.2,0,0-.13.47-.14.25-.05.09,0a.1.1,0,0,1,.07,0,.16.16,0,0,1,0,.08.37.37,0,0,1,0,.12.46.46,0,0,1,0,.1,1.36,1.36,0,0,1,0,.18c0,.07,0,.15,0,.24s0,.19,0,.3,0,.21,0,.33,0,.22,0,.33,0,.23,0,.33,0,.21,0,.3v.1l-.37,0ZM95.52,40v0l.36-.29.26-.23.18-.18a1.16,1.16,0,0,0,.11-.16.38.38,0,0,0,.06-.13.5.5,0,0,0,0-.12.77.77,0,0,0,0-.15v0l.12,0,.09,0,.08,0,0,.06a.16.16,0,0,1,0,.1.34.34,0,0,1,0,.1.37.37,0,0,1-.06.1.6.6,0,0,1-.11.12l-.18.17-.25.21-.35.29c.11.17.22.3.3.42l.22.29.16.19.11.11.1,0h.09l.15,0,.16,0,0,.09-.17.11-.18.08-.15.05h-.12a.15.15,0,0,1-.09,0,.27.27,0,0,1-.1-.06.51.51,0,0,1-.12-.13,2,2,0,0,1-.16-.2c-.07-.08-.14-.18-.22-.29l-.29-.4Z"/><path d="M98.73,41.2c0-.11,0-.23,0-.36s0-.25,0-.38,0-.27,0-.4,0-.25,0-.36,0-.21,0-.3v-.31l0-.08,0,0-.09,0-.14,0-.2,0,0-.13.47-.14.26-.05.08,0a.1.1,0,0,1,.07,0,.16.16,0,0,1,0,.08.37.37,0,0,1,0,.12.46.46,0,0,1,0,.1,1.36,1.36,0,0,1,0,.18c0,.07,0,.15,0,.24s0,.19,0,.3,0,.21,0,.33,0,.22,0,.33,0,.23,0,.33,0,.21,0,.3v.1l-.37,0ZM99.2,40v0l.36-.29.26-.23.18-.18a.66.66,0,0,0,.11-.16.38.38,0,0,0,.06-.13.5.5,0,0,0,0-.12.77.77,0,0,0,0-.15v0l.12,0,.1,0,.07,0,.06.06a.3.3,0,0,1,0,.1.36.36,0,0,1,0,.1.37.37,0,0,1-.06.1.6.6,0,0,1-.11.12l-.18.17-.25.21-.35.29.3.42.22.29.16.19.11.11.1,0h.09l.15,0,.16,0,0,.09-.18.11-.18.08-.15.05h-.12a.15.15,0,0,1-.09,0l-.1-.06A.51.51,0,0,1,100,41a2,2,0,0,1-.16-.2c-.07-.08-.14-.18-.22-.29l-.29-.4Z"/><path d="M102.4,39.4a.6.6,0,0,0-.05-.24.46.46,0,0,0-.11-.16.51.51,0,0,0-.16-.09.58.58,0,0,0-.19,0l-.2,0-.14.07a.26.26,0,0,0-.07.11.27.27,0,0,0,0,.13.3.3,0,0,0,0,.16.44.44,0,0,0,.08.17h0a.37.37,0,0,1-.2.05.2.2,0,0,1-.11,0l-.09,0a.22.22,0,0,1,0-.08.23.23,0,0,1,0-.11.41.41,0,0,1,0-.19,1.09,1.09,0,0,1,.13-.17l.19-.13.22-.1.22-.06.22,0a.9.9,0,0,1,.3,0,.46.46,0,0,1,.21.14.66.66,0,0,1,.12.22,1.36,1.36,0,0,1,0,.29,2.18,2.18,0,0,1,0,.25c0,.09,0,.19,0,.29s0,.2,0,.3,0,.21,0,.31a.61.61,0,0,0,.09.37.27.27,0,0,0,.24.13.66.66,0,0,0,.3-.1l0,.07a.69.69,0,0,1-.24.18.72.72,0,0,1-.29.06.65.65,0,0,1-.2,0,.5.5,0,0,1-.17-.11.49.49,0,0,1-.1-.19.68.68,0,0,1,0-.26v-.09a.28.28,0,0,0,0-.09h0a1.81,1.81,0,0,1-.17.29A1.27,1.27,0,0,1,102,41a1,1,0,0,1-.24.18.55.55,0,0,1-.28.07.46.46,0,0,1-.21,0,.71.71,0,0,1-.17-.11.62.62,0,0,1-.11-.17.78.78,0,0,1,0-.22.6.6,0,0,1,.06-.27.86.86,0,0,1,.15-.22,1,1,0,0,1,.24-.17,1.34,1.34,0,0,1,.3-.12l.34-.07.36,0a1.49,1.49,0,0,0,0-.21A1.55,1.55,0,0,0,102.4,39.4Zm-1.05,1.17a.53.53,0,0,0,0,.13.37.37,0,0,0,0,.11.27.27,0,0,0,.08.07.21.21,0,0,0,.12,0,.53.53,0,0,0,.16,0,.7.7,0,0,0,.16-.1l.15-.15a1.27,1.27,0,0,0,.13-.19,2.14,2.14,0,0,0,.1-.22,2,2,0,0,0,0-.24l-.25,0-.24,0-.21.07a.64.64,0,0,0-.16.11.53.53,0,0,0-.11.15A.46.46,0,0,0,101.35,40.57Z"/><path d="M103.27,38.82l.29,0,.32-.05.33,0,.32,0h.19l.21,0a.66.66,0,0,1,.2.06.68.68,0,0,1,.17.09.44.44,0,0,1,.12.15.38.38,0,0,1,0,.19.49.49,0,0,1-.06.25.77.77,0,0,1-.16.19.71.71,0,0,1-.22.13,1.13,1.13,0,0,1-.24.08h0a.84.84,0,0,1,.27,0,.82.82,0,0,1,.25.1.52.52,0,0,1,.18.18.5.5,0,0,1,.07.27,1,1,0,0,1,0,.25.76.76,0,0,1-.12.19,1.19,1.19,0,0,1-.18.15.94.94,0,0,1-.23.1l-.24.06-.26,0-.23,0-.21,0-.32,0h0c0-.2,0-.39,0-.58l0-.55c0-.17,0-.34,0-.5s0-.3,0-.43a.36.36,0,0,0,0-.11l0-.06a.15.15,0,0,0-.07,0h-.22l-.15,0ZM104.1,41l.19.07.19,0a1,1,0,0,0,.25,0,.53.53,0,0,0,.21-.11.57.57,0,0,0,.2-.43.36.36,0,0,0-.07-.24.44.44,0,0,0-.17-.16.92.92,0,0,0-.25-.08l-.29,0h-.22Zm.09-2.09s0,.1,0,.16a1.93,1.93,0,0,1,0,.23,2.62,2.62,0,0,1,0,.27c0,.09,0,.2,0,.3a1.84,1.84,0,0,0,.33,0,.89.89,0,0,0,.29-.09.55.55,0,0,0,.2-.17.46.46,0,0,0,.08-.27.35.35,0,0,0-.06-.21.29.29,0,0,0-.14-.13.66.66,0,0,0-.2-.06l-.21,0h-.12Z"/><path d="M106.19,41.2h0c0-.17,0-.34,0-.52l0-.54c0-.17,0-.34,0-.51s0-.31,0-.44a.44.44,0,0,0,0-.19.16.16,0,0,0-.14-.06L106,39l-.2,0,0-.13.24-.08.21-.06.17,0,.1,0,.09,0,.07,0a.22.22,0,0,1,.05.08.45.45,0,0,1,0,.12v.18c0,.08,0,.16,0,.25s0,.19,0,.3,0,.22,0,.34l0,.36c0,.13,0,.26,0,.38h0c.2-.35.41-.69.62-1s.43-.67.64-1l.39,0h0c0,.06,0,.14,0,.22a2.46,2.46,0,0,1,0,.26c0,.09,0,.19,0,.29s0,.19,0,.28a2.44,2.44,0,0,0,0,.27,1.85,1.85,0,0,0,0,.23c0,.14,0,.26,0,.35a.87.87,0,0,0,0,.21.2.2,0,0,0,.07.1.2.2,0,0,0,.11,0l.18,0a.89.89,0,0,0,.19-.07l0,.09-.15.1a.82.82,0,0,1-.19.09,1,1,0,0,1-.2.07l-.19,0a.22.22,0,0,1-.14,0,.35.35,0,0,1-.09-.16,1.45,1.45,0,0,1,0-.25c0-.1,0-.22,0-.34v-.16c0-.06,0-.13,0-.21s0-.15,0-.23a83.64,83.64,0,0,1,0-.51,1.5,1.5,0,0,1,0-.22h0c-.22.34-.44.68-.65,1s-.42.69-.63,1Z"/></g></svg>